#!OML:ASF F:\VICON\USERDATA\INSTALL\Justin_Nancy\Justin_Nancy.ASF
:FULLY-SPECIFIED
:DEGREES
118
root 4.39854 18.2763 16.7107 0.639578 43.4018 -7.57826
lowerback 7.6677 1.46923 5.44867
upperback -1.08622 2.72786 3.84173
thorax -5.38593 1.25853 0.619863
lowerneck -20.0262 -6.59085 -10.3511
upperneck 17.0836 -7.8582 8.63713
head 9.4538 -3.41358 3.56552
rclavicle 4.1049e-014 1.66979e-014
rhumerus -37.9732 20.5489 -91.4271
rradius 122.901
rwrist -25.986
rhand -5.11812 25.384
rfingers 7.12502
rthumb 20.6799 -3.53424
lclavicle 4.1049e-014 1.66979e-014
lhumerus -58.967 -7.66804 97.7864
lradius 109.532
lwrist 29.2162
lhand -6.32339 9.60556
lfingers 7.12502
lthumb 19.5215 38.6455
rfemur 10.3485 1.32627 27.7063
rtibia 26.1256
rfoot 18.6385 -1.47889
rtoes -17.6634
lfemur -30.7255 0.532263 -19.9219
ltibia 34.0247
lfoot 3.17161 -3.98474
ltoes -15.2621
119
root 4.62397 18.3009 17.0464 -0.155966 43.5093 -8.78642
lowerback 6.53167 1.8174 5.42576
upperback -0.527792 3.1151 4.79683
thorax -4.20459 1.50241 1.62768
lowerneck -19.8581 -6.85293 -10.8091
upperneck 16.2952 -7.93339 8.0932
head 9.15222 -3.54499 3.43223
rclavicle 1.68967e-014 -3.18055e-014
rhumerus -37.5995 20.9875 -90.092
rradius 123.261
rwrist -25.929
rhand -3.99681 24.6679
rfingers 7.12502
rthumb 21.757 -4.1293
lclavicle 1.68967e-014 -3.18055e-014
lhumerus -58.5069 -7.98897 98.8503
lradius 110.115
lwrist 28.6666
lhand -6.74138 9.8674
lfingers 7.12502
lthumb 19.1195 38.9476
rfemur 10.9522 1.85485 28.9836
rtibia 26.7128
rfoot 18.3804 -1.55434
rtoes -20.3112
lfemur -30.3717 -2.07024 -18.2028
ltibia 31.0505
lfoot 2.70332 -2.8711
ltoes -10.1513
120
root 4.85422 18.3317 17.3827 0.00759568 43.5969 -8.75123
lowerback 6.73056 1.89003 5.73045
upperback -0.94635 3.26357 4.43673
thorax -4.71599 1.54628 1.05669
lowerneck -19.7926 -6.8354 -10.5598
upperneck 16.7056 -8.05606 8.28293
head 9.2936 -3.56554 3.44401
rclavicle 8.13029e-014 -4.77083e-015
rhumerus -39.1389 20.8596 -91.8555
rradius 123.696
rwrist -25.0172
rhand -3.3608 24.5156
rfingers 7.12502
rthumb 22.3677 -4.20947
lclavicle 8.13029e-014 -4.77083e-015
lhumerus -59.4865 -8.58029 98.1507
lradius 111.019
lwrist 28.7278
lhand -6.02516 9.7814
lfingers 7.12502
lthumb 19.8082 38.792
rfemur 11.1423 2.34856 29.1873
rtibia 27.9099
rfoot 18.0326 -2.38676
rtoes -20.2066
lfemur -30.4196 -3.53403 -17.9014
ltibia 28.8568
lfoot 2.11797 -2.27555
ltoes -2.29822
121
root 5.08388 18.3573 17.7141 0.298037 43.5653 -8.51957
lowerback 7.123 1.94904 5.96356
upperback -1.42133 3.40408 3.99381
thorax -5.39455 1.57722 0.430288
lowerneck -19.7764 -6.78263 -10.1169
upperneck 17.2702 -8.19267 8.46773
head 9.49067 -3.57602 3.42137
rclavicle -6.4605e-015 1.90833e-014
rhumerus -39.8329 20.7908 -92.163
rradius 123.899
rwrist -25.4464
rhand -3.02556 25.1658
rfingers 7.12502
rthumb 22.6894 -3.52034
lclavicle -6.4605e-015 1.90833e-014
lhumerus -60.1241 -8.72993 97.3526
lradius 111.674
lwrist 29.5911
lhand -5.74961 10.4198
lfingers 7.12502
lthumb 20.073 39.4029
rfemur 10.7753 2.6606 29.062
rtibia 30.1625
rfoot 17.4675 -3.07363
rtoes -18.9088
lfemur -30.5489 -4.30448 -18.0079
ltibia 27.1758
lfoot 1.66276 -1.17304
ltoes -6.8628
122
root 5.30708 18.361 18.0436 0.105259 43.6223 -8.86986
lowerback 7.25494 1.92446 6.2099
upperback -1.64092 3.4238 3.9903
thorax -5.68828 1.56889 0.280262
lowerneck -16.049 -5.84256 -4.15729
upperneck 13.0465 -7.4857 3.20947
head 6.89322 -3.52644 0.908052
rclavicle -9.93923e-015 3.49861e-014
rhumerus -40.4607 20.9413 -92.4462
rradius 124.108
rwrist -25.6472
rhand -2.68356 25.427
rfingers 7.12502
rthumb 23.0176 -3.21858
lclavicle -9.93923e-015 3.49861e-014
lhumerus -60.5992 -8.83466 97.0399
lradius 112.483
lwrist 30.7598
lhand -8.86604 11.676
lfingers 7.12502
lthumb 17.0754 40.9456
rfemur 10.1729 2.71388 29.3632
rtibia 32.9308
rfoot 17.0212 -3.49129
rtoes -18.1609
lfemur -30.6823 -4.35519 -17.9403
ltibia 26.0193
lfoot 1.35255 -0.0587196
ltoes -5.6778
